<svg width="29" height="23" viewBox="0 0 29 23" fill="none" xmlns="http://www.w3.org/2000/svg">
<path d="M2.9 3.78565C3.1028 3.70439 3.34661 3.61462 3.62917 3.52407C4.62859 3.20381 6.10887 2.875 7.975 2.875C9.84113 2.875 11.3214 3.20381 12.3208 3.52407C12.6034 3.61462 12.8472 3.70439 13.05 3.78565V19.4248C11.8157 19.0447 10.0922 18.6875 7.975 18.6875C5.85776 18.6875 4.13426 19.0447 2.9 19.4248V3.78565ZM14.5 1.27259C14.1727 1.12871 13.741 0.95769 13.2128 0.78843C11.9692 0.389939 10.187 0 7.975 0C5.76301 0 3.98079 0.389939 2.73723 0.78843C2.1155 0.987663 1.62741 1.18933 1.28599 1.34631C1.11521 1.42483 0.98085 1.49229 0.884528 1.54286C0.836356 1.56815 0.797664 1.58923 0.76865 1.60538L0.732399 1.62582L0.719754 1.6331L0.71481 1.63598L0.712683 1.63722C0.709832 1.63889 0.3554 1.84712 0.710787 1.63833C0.270183 1.89718 0 2.36726 0 2.875V21.5625C0 22.079 0.27949 22.5558 0.732142 22.8115C1.1845 23.067 1.74031 23.0625 2.18835 22.7997C2.1844 22.8019 2.18192 22.8034 2.18192 22.8034L2.18382 22.8023L2.18609 22.801L2.18835 22.7997C2.19717 22.7948 2.21498 22.7851 2.24168 22.7711C2.2951 22.7431 2.38377 22.6982 2.5061 22.642C2.75091 22.5294 3.12942 22.3717 3.62917 22.2116C4.62859 21.8913 6.10887 21.5625 7.975 21.5625C9.84113 21.5625 11.3214 21.8913 12.3208 22.2116C12.8206 22.3717 13.1991 22.5294 13.4439 22.642C13.5662 22.6982 13.6549 22.7431 13.7083 22.7711C13.735 22.7851 13.7529 22.7949 13.7617 22.7998C13.7657 22.802 13.7681 22.8034 13.7681 22.8034M13.7681 22.8034L13.7662 22.8023L13.7639 22.801L13.7617 22.7998C14.2169 23.0664 14.7833 23.0666 15.2383 22.7997C15.2472 22.7948 15.265 22.7851 15.2917 22.7711C15.3451 22.7431 15.4338 22.6982 15.5561 22.642C15.8009 22.5294 16.1794 22.3717 16.6792 22.2116C17.6786 21.8913 19.1589 21.5625 21.025 21.5625C22.8911 21.5625 24.3714 21.8913 25.3708 22.2116C25.8706 22.3717 26.2491 22.5294 26.4939 22.642C26.6162 22.6982 26.7049 22.7431 26.7583 22.7711C26.785 22.7851 26.8029 22.7949 26.8117 22.7998L26.8133 22.8006C27.261 23.0625 27.816 23.0667 28.2679 22.8115C28.7205 22.5558 29 22.079 29 21.5625V2.875C29 2.36726 28.7298 1.89718 28.2892 1.63833L28.2873 1.63722L28.2852 1.63598L28.2802 1.6331L28.2676 1.62582L28.2313 1.60538C28.2023 1.58923 28.1636 1.56815 28.1155 1.54286C28.0191 1.49229 27.8848 1.42483 27.714 1.34631C27.3726 1.18933 26.8845 0.987663 26.2628 0.78843C25.0192 0.389939 23.237 0 21.025 0C18.813 0 17.0308 0.389939 15.7872 0.78843C15.259 0.95769 14.8273 1.12871 14.5 1.27259M26.1 3.78565V19.4248C24.8657 19.0447 23.1422 18.6875 21.025 18.6875C18.9078 18.6875 17.1843 19.0447 15.95 19.4248V3.78565C16.1528 3.70439 16.3966 3.61462 16.6792 3.52407C17.6786 3.20381 19.1589 2.875 21.025 2.875C22.8911 2.875 24.3714 3.20381 25.3708 3.52407C25.6534 3.61462 25.8972 3.70439 26.1 3.78565ZM26.8117 4.11233C26.8156 4.11453 26.8181 4.11592 26.8181 4.11592L26.8162 4.11482L26.8117 4.11233ZM26.8117 22.7998L26.8165 22.8025L26.8133 22.8006" fill="#EB262C"/>
</svg>
