<svg width="29" height="28" viewBox="0 0 29 28" fill="none" xmlns="http://www.w3.org/2000/svg">
<path d="M29 13.9867L25.7836 10.2667L26.2318 5.34667L21.4732 4.25333L18.9818 0L14.5 1.94667L10.0182 0L7.52682 4.25333L2.76818 5.33333L3.21636 10.2667L0 13.9867L3.21636 17.7067L2.76818 22.64L7.52682 23.7333L10.0182 28L14.5 26.04L18.9818 27.9867L21.4732 23.7333L26.2318 22.64L25.7836 17.72L29 13.9867ZM23.7932 15.96L23.055 16.8267L23.1605 17.96L23.3977 20.56L19.7859 21.3867L19.2059 22.3733L17.9009 24.6133L15.5545 23.5867L14.5 23.1333L13.4586 23.5867L11.1123 24.6133L9.80727 22.3867L9.22727 21.4L5.61546 20.5733L5.85273 17.96L5.95818 16.8267L5.22 15.96L3.51955 14L5.22 12.0267L5.95818 11.16L5.83955 10.0133L5.60227 7.42667L9.21409 6.6L9.79409 5.61333L11.0991 3.37333L13.4455 4.4L14.5 4.85333L15.5414 4.4L17.8877 3.37333L19.1927 5.61333L19.7727 6.6L23.3845 7.42667L23.1473 10.0267L23.0418 11.16L23.78 12.0267L25.4805 13.9867L23.7932 15.96Z" fill="#EB262C"/>
<path d="M11.9823 16.3335L8.92414 13.2268L6.97323 15.2135L11.9823 20.2935L21.6578 10.4802L19.7069 8.49349L11.9823 16.3335Z" fill="#EB262C"/>
</svg>
