<svg width="29" height="31" viewBox="0 0 29 31" fill="none" xmlns="http://www.w3.org/2000/svg">
<path d="M11.5132 1.93459C11.992 0.800046 13.1489 0 14.5 0C15.8511 0 17.008 0.800046 17.4868 1.93459C22.2658 3.19411 25.7778 7.40248 25.7778 12.4V19.6807L28.7294 23.9402C29.059 24.4158 29.0897 25.0274 28.8094 25.5314C28.529 26.0354 27.9831 26.35 27.3889 26.35H20.0818C19.6909 28.979 17.3408 31 14.5 31C11.6592 31 9.3091 28.979 8.91822 26.35H1.61111C1.01694 26.35 0.471002 26.0354 0.190638 25.5314C-0.0897261 25.0274 -0.0589981 24.4158 0.270588 23.9402L3.22222 19.6807V12.4C3.22222 7.40248 6.73417 3.19411 11.5132 1.93459ZM12.2208 26.35C12.5526 27.253 13.4478 27.9 14.5 27.9C15.5522 27.9 16.4474 27.253 16.7792 26.35H12.2208ZM14.5 4.65C10.051 4.65 6.44445 8.11979 6.44445 12.4V20.15C6.44445 20.456 6.3503 20.7552 6.17386 21.0098L4.6215 23.25H24.3785L22.8261 21.0098C22.6497 20.7552 22.5556 20.456 22.5556 20.15V12.4C22.5556 8.11979 18.949 4.65 14.5 4.65Z" fill="white"/>
</svg>
